<svg width="18" height="18" viewBox="0 0 18 18" fill="none" xmlns="http://www.w3.org/2000/svg">
<path d="M3.99999 17.3333H0.666656V14H3.99999V17.3333ZM10.6667 17.3333H7.33332V14H10.6667V17.3333ZM17.3333 17.3333H14V14H17.3333V17.3333ZM7.33332 14H3.99999V10.6666H7.33332V14ZM14 14H10.6667V10.6666H14V14ZM3.99999 10.6666H0.666656V7.33329H3.99999V10.6666ZM10.6667 10.6666H7.33332V7.33329H10.6667V10.6666ZM17.3333 10.6666H14V7.33329H17.3333V10.6666ZM7.33332 7.33329H3.99999V3.99996H7.33332V7.33329ZM14 7.33329H10.6667V3.99996H14V7.33329ZM3.99999 3.99996H0.666656V0.666626H3.99999V3.99996ZM10.6667 3.99996H7.33332V0.666626H10.6667V3.99996ZM17.3333 3.99996H14V0.666626H17.3333V3.99996Z" fill="#BFBFBF"/>
</svg>
